<svg height='100px' width='100px'  fill="#000000" xmlns="http://www.w3.org/2000/svg" xmlns:xlink="http://www.w3.org/1999/xlink" version="1.1" x="0px" y="0px" viewBox="0 0 100 100" enable-background="new 0 0 100 100" xml:space="preserve"><g><path d="M61.257,31.719c0-6.207-5.05-11.256-11.257-11.256s-11.257,5.049-11.257,11.256c0,6.206,5.05,11.256,11.257,11.256   S61.257,37.925,61.257,31.719z M41.927,31.719c0-4.451,3.621-8.073,8.073-8.073s8.073,3.622,8.073,8.073S54.452,39.791,50,39.791   S41.927,36.17,41.927,31.719z"></path><path d="M93.667,88.519L90.116,76.09L86.14,62.177c-0.659-2.313-3.061-4.122-5.465-4.122H65.966   C71.42,49.711,76.72,39.588,76.72,31.719C76.72,16.986,64.733,5,50,5S23.28,16.986,23.28,31.719   c0,7.868,5.301,17.992,10.754,26.335H19.325c-2.405,0-4.806,1.81-5.465,4.122L9.885,76.09L6.334,88.519   c-0.472,1.651-0.209,3.305,0.722,4.539C7.985,94.291,9.505,95,11.223,95h77.555c1.718,0,3.236-0.709,4.167-1.94   C93.875,91.825,94.138,90.172,93.667,88.519z M26.465,31.719C26.465,18.741,37.022,8.183,50,8.183s23.535,10.558,23.535,23.536   c0,14.69-21.483,39.659-21.7,39.908c-1.001,1.156-2.668,1.158-3.671,0C47.947,71.378,26.465,46.417,26.465,31.719z M90.402,91.142   c-0.327,0.436-0.904,0.675-1.625,0.675H11.223c-0.722,0-1.298-0.239-1.625-0.675c-0.33-0.436-0.401-1.058-0.203-1.749l3.551-12.428   l3.975-13.914c0.271-0.949,1.418-1.813,2.405-1.813h16.854c4.791,6.912,9.177,12.009,9.579,12.475   c1.116,1.286,2.621,1.994,4.241,1.994c1.621,0,3.126-0.708,4.242-1.994c0.402-0.466,4.788-5.563,9.579-12.475h16.854   c0.987,0,2.134,0.863,2.404,1.813l3.975,13.914l3.552,12.428C90.804,90.084,90.731,90.706,90.402,91.142z"></path></g></svg>